<svg width="223" height="54" viewBox="0 0 223 54" fill="none" xmlns="http://www.w3.org/2000/svg">
<rect x="0" width="223" height="54" rx="6" fill="#f3f3f3"/>
<g filter="url(#filter0_dd)">
<rect x="4" y="3" width="217" height="48" rx="4" fill="#f3f3f3"/>
</g>
<path d="M52.9186 29.3477C53.028 31.1113 54.4977 32.2393 56.6852 32.2393C59.0231 32.2393 60.486 31.0566 60.486 29.1699C60.486 27.6865 59.652 26.8662 57.6286 26.3945L56.5416 26.1279C55.2565 25.8271 54.737 25.4238 54.737 24.7197C54.737 23.8311 55.5436 23.25 56.7536 23.25C57.902 23.25 58.695 23.8174 58.8385 24.7266H60.3288C60.2399 23.0654 58.777 21.8965 56.7741 21.8965C54.6207 21.8965 53.1852 23.0654 53.1852 24.8223C53.1852 26.2715 53.9987 27.1328 55.7829 27.5498L57.0543 27.8574C58.36 28.165 58.9342 28.6162 58.9342 29.3682C58.9342 30.2432 58.0319 30.8789 56.8014 30.8789C55.4821 30.8789 54.5661 30.2842 54.4362 29.3477H52.9186ZM62.219 32H63.6819V24.5557H62.219V32ZM62.9505 23.2637C63.4632 23.2637 63.8802 22.833 63.8802 22.3066C63.8802 21.7734 63.4632 21.3428 62.9505 21.3428C62.4378 21.3428 62.0208 21.7734 62.0208 22.3066C62.0208 22.833 62.4378 23.2637 62.9505 23.2637ZM68.8193 30.6191C67.5546 30.6191 66.8437 29.6689 66.8437 28.1855C66.8437 26.7021 67.5546 25.752 68.8193 25.752C70.0702 25.752 70.8359 26.7021 70.8359 28.1855C70.8359 29.6758 70.0771 30.6191 68.8193 30.6191ZM68.8398 34.8438C70.9452 34.8438 72.2782 33.7637 72.2782 32.0615V24.5557H70.87V25.7451H70.7538C70.3368 24.9385 69.4413 24.4326 68.4159 24.4326C66.5155 24.4326 65.3261 25.9229 65.3261 28.1924C65.3261 30.4209 66.5019 31.8906 68.4023 31.8906C69.4277 31.8906 70.248 31.4463 70.6991 30.6396H70.8085V32.0684C70.8085 33.0527 70.0839 33.6338 68.8603 33.6338C67.8691 33.6338 67.247 33.2852 67.1239 32.7451H65.62C65.7773 34.0098 66.9804 34.8438 68.8398 34.8438ZM74.2711 32H75.7408V27.6455C75.7408 26.4834 76.4312 25.7588 77.5181 25.7588C78.605 25.7588 79.1246 26.3535 79.1246 27.5498V32H80.5943V27.1807C80.5943 25.4102 79.6783 24.4121 78.0171 24.4121C76.8961 24.4121 76.1578 24.9111 75.7955 25.7383H75.6861V24.5557H74.2711V32ZM86.2411 32H87.7039V24.5557H86.2411V32ZM86.9725 23.2637C87.4852 23.2637 87.9022 22.833 87.9022 22.3066C87.9022 21.7734 87.4852 21.3428 86.9725 21.3428C86.4598 21.3428 86.0428 21.7734 86.0428 22.3066C86.0428 22.833 86.4598 23.2637 86.9725 23.2637ZM89.7241 32H91.1938V27.6455C91.1938 26.4834 91.8843 25.7588 92.9712 25.7588C94.0581 25.7588 94.5776 26.3535 94.5776 27.5498V32H96.0473V27.1807C96.0473 25.4102 95.1313 24.4121 93.4702 24.4121C92.3491 24.4121 91.6108 24.9111 91.2485 25.7383H91.1391V24.5557H89.7241V32ZM111.36 24.5557H109.89L108.564 30.2363H108.448L106.917 24.5557H105.509L103.977 30.2363H103.868L102.535 24.5557H101.045L103.095 32H104.606L106.137 26.5176H106.254L107.792 32H109.316L111.36 24.5557ZM112.765 32H114.228V24.5557H112.765V32ZM113.496 23.2637C114.009 23.2637 114.426 22.833 114.426 22.3066C114.426 21.7734 114.009 21.3428 113.496 21.3428C112.984 21.3428 112.567 21.7734 112.567 22.3066C112.567 22.833 112.984 23.2637 113.496 23.2637ZM116.768 22.7031V24.5898H115.585V25.8271H116.768V30.0312C116.768 31.4668 117.417 32.041 119.051 32.041C119.338 32.041 119.611 32.0068 119.851 31.9658V30.7422C119.646 30.7627 119.516 30.7764 119.29 30.7764C118.559 30.7764 118.237 30.4346 118.237 29.6553V25.8271H119.851V24.5898H118.237V22.7031H116.768ZM121.508 32H122.978V27.6523C122.978 26.5244 123.648 25.7656 124.851 25.7656C125.89 25.7656 126.444 26.3672 126.444 27.5566V32H127.914V27.1943C127.914 25.4238 126.936 24.4189 125.35 24.4189C124.229 24.4189 123.443 24.918 123.081 25.752H122.965V21.6504H121.508V32ZM137.758 32C139.863 32 141.128 30.9404 141.128 29.2041C141.128 27.9189 140.239 26.9688 138.906 26.832V26.7158C139.877 26.5518 140.636 25.6289 140.636 24.5967C140.636 23.0791 139.521 22.1357 137.669 22.1357H133.704V32H137.758ZM135.235 23.4346H137.313C138.448 23.4346 139.111 23.9678 139.111 24.877C139.111 25.8135 138.407 26.3125 137.054 26.3125H135.235V23.4346ZM135.235 30.7012V27.5225H137.361C138.804 27.5225 139.562 28.0625 139.562 29.0947C139.562 30.1406 138.831 30.7012 137.45 30.7012H135.235ZM142.854 32H144.324V21.6504H142.854V32ZM149.536 32.1436C151.71 32.1436 153.043 30.6875 153.043 28.2744C153.043 25.875 151.703 24.4121 149.536 24.4121C147.363 24.4121 146.023 25.875 146.023 28.2744C146.023 30.6875 147.356 32.1436 149.536 32.1436ZM149.536 30.8379C148.258 30.8379 147.54 29.9014 147.54 28.2744C147.54 26.6611 148.258 25.7178 149.536 25.7178C150.808 25.7178 151.532 26.6611 151.532 28.2744C151.532 29.8945 150.808 30.8379 149.536 30.8379ZM160.976 26.9893C160.785 25.499 159.657 24.4121 157.791 24.4121C155.624 24.4121 154.305 25.8682 154.305 28.2539C154.305 30.6807 155.631 32.1436 157.798 32.1436C159.637 32.1436 160.785 31.1045 160.976 29.6074H159.548C159.356 30.4072 158.721 30.8311 157.791 30.8311C156.567 30.8311 155.808 29.8672 155.808 28.2539C155.808 26.668 156.56 25.7246 157.791 25.7246C158.775 25.7246 159.377 26.2646 159.548 26.9893H160.976ZM164.172 27.6592H164.056V21.6504H162.586V32H164.056V29.334L164.706 28.7188L167.262 32H169.067L165.799 27.748L168.862 24.5557H167.126L164.172 27.6592ZM169.822 26.6611C169.822 27.7686 170.479 28.4043 171.894 28.7393L173.193 29.04C173.938 29.2178 174.286 29.5049 174.286 29.9492C174.286 30.5439 173.637 30.9541 172.721 30.9541C171.832 30.9541 171.285 30.5986 171.101 30.0244H169.631C169.761 31.3438 170.916 32.1436 172.687 32.1436C174.464 32.1436 175.77 31.207 175.77 29.8057C175.77 28.7119 175.107 28.1035 173.692 27.7754L172.454 27.4883C171.648 27.3037 171.272 27.0234 171.272 26.5791C171.272 25.998 171.894 25.6084 172.714 25.6084C173.548 25.6084 174.081 25.957 174.218 26.5039H175.626C175.483 25.1914 174.389 24.4121 172.714 24.4121C171.032 24.4121 169.822 25.3418 169.822 26.6611ZM177.865 22.7031V24.5898H176.682V25.8271H177.865V30.0312C177.865 31.4668 178.514 32.041 180.148 32.041C180.435 32.041 180.709 32.0068 180.948 31.9658V30.7422C180.743 30.7627 180.613 30.7764 180.387 30.7764C179.656 30.7764 179.335 30.4346 179.335 29.6553V25.8271H180.948V24.5898H179.335V22.7031H177.865ZM184.971 30.8857C184.171 30.8857 183.59 30.4961 183.59 29.8262C183.59 29.1699 184.055 28.8213 185.081 28.7529L186.899 28.6367V29.2588C186.899 30.1816 186.079 30.8857 184.971 30.8857ZM184.595 32.123C185.573 32.123 186.386 31.6992 186.831 30.9541H186.947V32H188.362V26.9141C188.362 25.3418 187.309 24.4121 185.443 24.4121C183.754 24.4121 182.551 25.2324 182.401 26.5107H183.823C183.987 25.9844 184.554 25.6836 185.374 25.6836C186.379 25.6836 186.899 26.1279 186.899 26.9141V27.5566L184.882 27.6729C183.112 27.7822 182.114 28.5547 182.114 29.8945C182.114 31.2549 183.16 32.123 184.595 32.123ZM196.616 26.9893C196.425 25.499 195.297 24.4121 193.431 24.4121C191.264 24.4121 189.944 25.8682 189.944 28.2539C189.944 30.6807 191.271 32.1436 193.438 32.1436C195.276 32.1436 196.425 31.1045 196.616 29.6074H195.188C194.996 30.4072 194.36 30.8311 193.431 30.8311C192.207 30.8311 191.448 29.8672 191.448 28.2539C191.448 26.668 192.2 25.7246 193.431 25.7246C194.415 25.7246 195.017 26.2646 195.188 26.9893H196.616ZM199.812 27.6592H199.696V21.6504H198.226V32H199.696V29.334L200.345 28.7188L202.902 32H204.707L201.439 27.748L204.502 24.5557H202.765L199.812 27.6592Z" fill="#0086aa"/>
<path fill-rule="evenodd" clip-rule="evenodd" d="M20.2467 18.8086C20 19.3787 20 20.1058 20 21.56L20 27L20 32.44C20 33.8942 20 34.6213 20.2467 35.1914C20.5498 35.8917 21.1083 36.4502 21.8086 36.7533C22.3787 37 23.1058 37 24.56 37H30H35.44C36.8942 37 37.6213 37 38.1914 36.7533C38.8917 36.4502 39.4502 35.8917 39.7533 35.1914C40 34.6213 40 33.8942 40 32.44V27V21.56C40 20.1058 40 19.3787 39.7533 18.8086C39.4502 18.1083 38.8917 17.5498 38.1914 17.2467C37.6213 17 36.8942 17 35.44 17L30 17L24.56 17C23.1058 17 22.3787 17 21.8086 17.2467C21.1083 17.5498 20.5498 18.1083 20.2467 18.8086ZM33.1928 25.6161C32.1947 25.6161 31.3854 24.8068 31.3854 23.8085C31.3854 22.8107 32.1947 22.0015 33.1928 22.0015C34.1908 22.0015 35.0001 22.8107 35.0001 23.8085C35.0001 24.8068 34.1908 25.6161 33.1928 25.6161ZM28.6131 23.8083C28.6131 24.806 27.8042 25.6149 26.8064 25.6149C25.809 25.6149 25.0001 24.806 25.0001 23.8083C25.0001 22.8107 25.809 22.0018 26.8064 22.0018C27.8042 22.0018 28.6131 22.8107 28.6131 23.8083ZM33.1929 28.391C32.1946 28.391 31.3854 29.2003 31.3854 30.1983C31.3854 31.1964 32.1946 32.0057 33.1929 32.0057C34.1907 32.0057 35 31.1964 35 30.1983C35 29.2003 34.1907 28.391 33.1929 28.391ZM26.8065 28.3927C27.8041 28.3927 28.6131 29.2016 28.6131 30.1995C28.6131 31.1968 27.8041 32.0057 26.8065 32.0057C25.8089 32.0057 25 31.1968 25 30.1995C25 29.2016 25.8089 28.3927 26.8065 28.3927Z" fill="#0086aa"/>
<defs>
<filter id="filter0_dd" x="0" y="1" width="225" height="56" filterUnits="userSpaceOnUse" color-interpolation-filters="sRGB">
<feFlood flood-opacity="0" result="BackgroundImageFix"/>
<feColorMatrix in="SourceAlpha" type="matrix" values="0 0 0 0 0 0 0 0 0 0 0 0 0 0 0 0 0 0 127 0"/>
<feOffset dy="2"/>
<feGaussianBlur stdDeviation="2"/>
<feColorMatrix type="matrix" values="0 0 0 0 0 0 0 0 0 0 0 0 0 0 0 0 0 0 0.08 0"/>
<feBlend mode="normal" in2="BackgroundImageFix" result="effect1_dropShadow"/>
<feColorMatrix in="SourceAlpha" type="matrix" values="0 0 0 0 0 0 0 0 0 0 0 0 0 0 0 0 0 0 127 0"/>
<feOffset dy="2"/>
<feGaussianBlur stdDeviation="1"/>
<feColorMatrix type="matrix" values="0 0 0 0 0 0 0 0 0 0 0 0 0 0 0 0 0 0 0.06 0"/>
<feBlend mode="normal" in2="effect1_dropShadow" result="effect2_dropShadow"/>
<feBlend mode="normal" in="SourceGraphic" in2="effect2_dropShadow" result="shape"/>
</filter>
</defs>
</svg>
